# xmcd CD database file
#
# Track frame offsets:
#	150
#	11580
#	24705
#	37567
#	53089
#	63647
#	76920
#	91987
#	104900
#	116245
#	128977
#	148162
#	161410
#	180787
#	192958
#
# Disc length: 2620 seconds
#
# Revision: 1
# Processed by: cddbd v1.4PL0 Copyright (c) Steve Scherf et al.
# Submitted via: CDex 1.40Release
#
DISCID=c50a3a0f
DTITLE=Jump 4 Joy - cutest lil' boogie
DYEAR=2001
DGENRE=Blues
TTITLE0=shake shake
TTITLE1=jump for joy
TTITLE2=square dance boggie
TTITLE3=three times a fool
TTITLE4=my baby's boggying
TTITLE5=viscious viscious vodka
TTITLE6=happy
TTITLE7=snuff dipping mama
TTITLE8=just cause I left you
TTITLE9=tell that woman
TTITLE10=tee nah nah
TTITLE11=juicy !
TTITLE12=true love
TTITLE13=Empty
TTITLE14=Data CD ROM
EXTD=YEAR: 2001 ID3G: 0
EXTT0=
EXTT1=
EXTT2=
EXTT3=
EXTT4=
EXTT5=
EXTT6=
EXTT7=
EXTT8=
EXTT9=
EXTT10=
EXTT11=
EXTT12=
EXTT13=
EXTT14=
PLAYORDER=
